<svg xmlns="http://www.w3.org/2000/svg" width="338" height="338" viewBox="0 0 338 338" version="1.1"><path d="M 136.625 35.554 C 116.038 39.645, 98.910 48.744, 83.758 63.642 C 51.517 95.342, 44.206 142.906, 65.375 183.238 C 70.175 192.382, 72.619 195.838, 80.447 204.550 C 86.190 210.942, 87.607 212, 90.421 212 C 97.833 212, 101.610 214.927, 103.326 222 C 103.760 223.789, 105.232 225.030, 108.503 226.364 L 113.073 228.228 112.534 234.364 C 111.684 244.029, 112.733 239.852, 115.498 222.560 C 116.900 213.792, 118.185 206.482, 118.353 206.314 C 118.521 206.146, 120.647 205.758, 123.079 205.453 L 127.500 204.897 137.952 221.586 L 148.404 238.276 159.221 237.619 C 170.584 236.929, 178.232 235.468, 188.967 231.937 C 195.678 229.729, 206.505 224.619, 207.324 223.272 C 207.583 222.848, 206.034 221.393, 203.882 220.039 C 199.332 217.178, 195 209.434, 195 204.163 C 195 199.232, 198.720 192.466, 203.102 189.430 C 209.953 184.682, 217.412 184.217, 225.067 188.062 C 229.216 190.146, 230.417 191.443, 232.876 196.499 L 234.679 200.206 238.230 195.353 C 252.610 175.703, 259.222 151.151, 256.892 126.056 C 252.786 81.837, 219.565 45.036, 175.500 35.894 C 164.795 33.673, 146.881 33.516, 136.625 35.554 M 138 134.500 L 138 187.133 140.750 186.816 L 143.500 186.500 143.500 134.500 L 143.500 82.500 140.750 82.184 L 138 81.867 138 134.500 M 155.994 125.184 C 155.988 167.932, 156.018 168.569, 158.244 173.733 C 159.485 176.611, 160.842 178.974, 161.260 178.983 C 161.677 178.992, 161.902 157.288, 161.760 130.750 L 161.500 82.500 158.750 82.184 L 156 81.867 155.994 125.184 M 120 135.500 L 120 187.133 122.750 186.816 L 125.500 186.500 125.500 135.500 L 125.500 84.500 122.750 84.184 L 120 83.867 120 135.500 M 174 135.598 L 174 187.133 176.750 186.816 L 179.500 186.500 179.777 171.635 C 180.045 157.292, 179.966 156.618, 177.527 152.457 C 174.425 147.163, 174.425 147.169, 177.500 146 L 180 145.050 180 116.147 C 180 86.099, 180.015 86.207, 175.750 84.687 C 174.098 84.098, 174 86.946, 174 135.598 M 165 137.500 L 165 187.133 167.750 186.816 L 170.500 186.500 170.500 137.500 L 170.500 88.500 167.750 88.184 L 165 87.867 165 137.500 M 183 116.063 C 183 141.788, 183.094 143.174, 184.750 141.922 C 188.927 138.763, 189 138.306, 189 115.464 C 189 95.604, 188.819 93.154, 187.250 91.807 C 182.901 88.073, 183 87.509, 183 116.063 M 129 140.500 L 129 187.133 131.750 186.816 L 134.500 186.500 134.500 140.500 L 134.500 94.500 131.750 94.184 L 129 93.867 129 140.500 M 192.169 116 L 192.169 134.500 194.319 130 C 197.423 123.504, 197.431 108.435, 194.334 102 L 192.169 97.500 192.169 116 M 147 126.033 L 147 150.066 149.750 155.283 L 152.500 160.500 152.766 132.513 C 152.913 117.121, 152.814 103.958, 152.548 103.263 C 152.281 102.569, 150.924 102, 149.531 102 L 147 102 147 126.033 M 183 175.066 L 183 187.133 185.750 186.816 C 188.410 186.510, 188.510 186.282, 188.794 179.804 C 189.039 174.234, 188.658 172.260, 186.528 168.054 C 185.119 165.275, 183.749 163, 183.483 163 C 183.217 163, 183 168.430, 183 175.066 M 50.135 190.614 C 43.462 200.479, 41.861 203.538, 42.222 205.740 C 43.100 211.102, 58.222 284.505, 58.514 284.822 C 58.677 284.999, 67.740 283.327, 78.655 281.107 C 89.570 278.887, 117.400 273.223, 140.500 268.521 C 220.095 252.317, 222.318 251.897, 222.955 252.928 C 223.295 253.478, 224.849 260.469, 226.408 268.464 C 227.966 276.459, 229.551 283, 229.928 283 C 230.617 283, 232.083 281.013, 241.829 266.867 L 247.088 259.234 243.937 243.867 C 242.204 235.415, 240.439 228.127, 240.015 227.672 C 239.309 226.914, 216.227 231.429, 113.030 252.510 C 92.972 256.608, 76.284 259.632, 75.947 259.230 C 75.609 258.829, 71.813 240.950, 67.511 219.500 C 63.209 198.050, 59.421 179.993, 59.094 179.374 C 58.767 178.755, 54.736 183.813, 50.135 190.614 M 192.005 182.250 C 192 186.651, 192.183 187, 194.500 187 C 197.573 187, 197.571 186.528, 194.474 181.500 L 192.010 177.500 192.005 182.250 M 182.500 192.878 C 180.850 193.231, 179.549 193.866, 179.608 194.289 C 179.668 194.712, 181.237 202.470, 183.096 211.529 C 186.387 227.567, 186.542 228, 188.988 227.985 C 194.410 227.952, 194.469 227.452, 191.034 210.873 C 187.283 192.771, 187.074 191.964, 186.183 192.118 C 185.807 192.183, 184.150 192.525, 182.500 192.878 M 210.378 194.437 C 206.113 196.293, 204 199.656, 204 204.588 C 204 209.889, 206.833 213.570, 212.136 215.159 C 215.642 216.209, 216.619 216.122, 219.660 214.484 C 223.818 212.244, 226 208.447, 226 203.450 C 226 200.632, 225.225 199.025, 222.600 196.400 C 218.854 192.654, 215.655 192.140, 210.378 194.437 M 150.174 199.520 C 147.245 200.234, 144.698 200.972, 144.515 201.159 C 144.332 201.347, 145.829 209.282, 147.841 218.792 C 151.207 234.699, 151.660 236.048, 153.500 235.626 C 154.600 235.374, 158.060 234.653, 161.188 234.026 C 172.017 231.852, 178 225.522, 178 216.238 C 178 208.603, 175.091 203.723, 168.618 200.497 C 163.052 197.723, 158.526 197.483, 150.174 199.520 M 155.044 205.952 C 153.777 206.753, 153.819 208.080, 155.372 216.177 C 156.353 221.295, 157.598 226.016, 158.139 226.668 C 159.617 228.448, 164.477 226.410, 167.598 222.701 C 171.253 218.357, 170.588 211.808, 166.083 207.782 C 162.878 204.919, 157.964 204.104, 155.044 205.952 M 300.022 214.385 L 275.544 219.500 268.189 230 C 264.145 235.775, 260.375 241.346, 259.812 242.381 C 258.592 244.625, 257.363 244.787, 286 238.926 C 296.725 236.731, 306.661 234.706, 308.080 234.425 C 309.985 234.049, 312.677 231.041, 318.374 222.924 C 326.865 210.826, 327.892 208.933, 325.857 209.135 C 325.111 209.209, 313.485 211.572, 300.022 214.385 M 75.068 216.229 C 74.949 217.505, 82.020 250.353, 82.520 250.854 C 83.410 251.744, 83.010 249.137, 79.978 234.294 C 77.350 221.426, 75.289 213.844, 75.068 216.229 M 123.544 217.250 C 123.328 217.938, 122.958 220.863, 122.722 223.750 C 122.320 228.679, 122.434 229, 124.582 229 C 125.840 229, 128.016 228.564, 129.416 228.032 C 132.305 226.934, 132.134 225.785, 128.187 219.750 C 125.647 215.866, 124.221 215.098, 123.544 217.250 M 92.254 220.750 C 93.114 221.713, 94.022 223.625, 94.273 225 C 94.679 227.233, 94.742 227.174, 94.864 224.450 C 94.997 221.462, 93.543 219, 91.645 219 C 91.120 219, 91.394 219.787, 92.254 220.750 M 131 233.933 C 131 234.446, 132.012 235.174, 133.250 235.551 C 134.488 235.928, 136.287 236.928, 137.250 237.773 C 139.420 239.678, 139.531 238.204, 137.443 235.223 C 135.916 233.041, 131 232.057, 131 233.933 M 95 241.500 C 100.572 247.142, 102.769 248.752, 99.436 244.750 C 95.003 239.427, 91.537 236, 90.588 236 C 90.027 236, 92.013 238.475, 95 241.500" stroke="none" fill="#27371a" fill-rule="evenodd"/><path d="M 143.658 1.569 C 117.135 5.695, 92.127 15.910, 69.500 31.860 C 59.216 39.110, 39.110 59.216, 31.860 69.500 C 10.452 99.869, 0.012 132.485, 0.012 169 C 0.012 205.515, 10.452 238.131, 31.860 268.500 C 39.110 278.784, 59.216 298.890, 69.500 306.140 C 99.869 327.548, 132.485 337.988, 169 337.988 C 205.515 337.988, 238.131 327.548, 268.500 306.140 C 278.784 298.890, 298.890 278.784, 306.140 268.500 C 322.259 245.634, 334.225 215.782, 336.613 192.478 C 336.981 188.884, 337.669 185.705, 338.141 185.413 C 338.613 185.121, 339 177.232, 339 167.882 C 339 158.532, 338.611 151.122, 338.136 151.416 C 337.660 151.710, 336.972 149.034, 336.607 145.469 C 334.225 122.220, 322.244 92.344, 306.140 69.500 C 298.890 59.216, 278.784 39.110, 268.500 31.860 C 245.468 15.624, 220.753 5.627, 193.490 1.517 C 181.156 -0.341, 155.772 -0.315, 143.658 1.569 M 136.625 35.554 C 116.038 39.645, 98.910 48.744, 83.758 63.642 C 51.517 95.342, 44.206 142.906, 65.375 183.238 C 70.175 192.382, 72.619 195.838, 80.447 204.550 C 86.190 210.942, 87.607 212, 90.421 212 C 97.833 212, 101.610 214.927, 103.326 222 C 103.760 223.789, 105.232 225.030, 108.503 226.364 L 113.073 228.228 112.534 234.364 C 111.684 244.029, 112.733 239.852, 115.498 222.560 C 116.900 213.792, 118.185 206.482, 118.353 206.314 C 118.521 206.146, 120.647 205.758, 123.079 205.453 L 127.500 204.897 137.952 221.586 L 148.404 238.276 159.221 237.619 C 170.584 236.929, 178.232 235.468, 188.967 231.937 C 195.678 229.729, 206.505 224.619, 207.324 223.272 C 207.583 222.848, 206.034 221.393, 203.882 220.039 C 199.332 217.178, 195 209.434, 195 204.163 C 195 199.232, 198.720 192.466, 203.102 189.430 C 209.953 184.682, 217.412 184.217, 225.067 188.062 C 229.216 190.146, 230.417 191.443, 232.876 196.499 L 234.679 200.206 238.230 195.353 C 252.610 175.703, 259.222 151.151, 256.892 126.056 C 252.786 81.837, 219.565 45.036, 175.500 35.894 C 164.795 33.673, 146.881 33.516, 136.625 35.554 M 138 134.500 L 138 187.133 140.750 186.816 L 143.500 186.500 143.500 134.500 L 143.500 82.500 140.750 82.184 L 138 81.867 138 134.500 M 155.994 125.184 C 155.988 167.932, 156.018 168.569, 158.244 173.733 C 159.485 176.611, 160.842 178.974, 161.260 178.983 C 161.677 178.992, 161.902 157.288, 161.760 130.750 L 161.500 82.500 158.750 82.184 L 156 81.867 155.994 125.184 M 120 135.500 L 120 187.133 122.750 186.816 L 125.500 186.500 125.500 135.500 L 125.500 84.500 122.750 84.184 L 120 83.867 120 135.500 M 174 135.598 L 174 187.133 176.750 186.816 L 179.500 186.500 179.777 171.635 C 180.045 157.292, 179.966 156.618, 177.527 152.457 C 174.425 147.163, 174.425 147.169, 177.500 146 L 180 145.050 180 116.147 C 180 86.099, 180.015 86.207, 175.750 84.687 C 174.098 84.098, 174 86.946, 174 135.598 M 165 137.500 L 165 187.133 167.750 186.816 L 170.500 186.500 170.500 137.500 L 170.500 88.500 167.750 88.184 L 165 87.867 165 137.500 M 183 116.063 C 183 141.788, 183.094 143.174, 184.750 141.922 C 188.927 138.763, 189 138.306, 189 115.464 C 189 95.604, 188.819 93.154, 187.250 91.807 C 182.901 88.073, 183 87.509, 183 116.063 M 129 140.500 L 129 187.133 131.750 186.816 L 134.500 186.500 134.500 140.500 L 134.500 94.500 131.750 94.184 L 129 93.867 129 140.500 M 192.169 116 L 192.169 134.500 194.319 130 C 197.423 123.504, 197.431 108.435, 194.334 102 L 192.169 97.500 192.169 116 M 147 126.033 L 147 150.066 149.750 155.283 L 152.500 160.500 152.766 132.513 C 152.913 117.121, 152.814 103.958, 152.548 103.263 C 152.281 102.569, 150.924 102, 149.531 102 L 147 102 147 126.033 M 0.411 169 C 0.411 178.625, 0.561 182.563, 0.745 177.750 C 0.928 172.937, 0.928 165.062, 0.745 160.250 C 0.561 155.438, 0.411 159.375, 0.411 169 M 183 175.066 L 183 187.133 185.750 186.816 C 188.410 186.510, 188.510 186.282, 188.794 179.804 C 189.039 174.234, 188.658 172.260, 186.528 168.054 C 185.119 165.275, 183.749 163, 183.483 163 C 183.217 163, 183 168.430, 183 175.066 M 50.135 190.614 C 43.462 200.479, 41.861 203.538, 42.222 205.740 C 43.100 211.102, 58.222 284.505, 58.514 284.822 C 58.677 284.999, 67.740 283.327, 78.655 281.107 C 89.570 278.887, 117.400 273.223, 140.500 268.521 C 220.095 252.317, 222.318 251.897, 222.955 252.928 C 223.295 253.478, 224.849 260.469, 226.408 268.464 C 227.966 276.459, 229.551 283, 229.928 283 C 230.617 283, 232.083 281.013, 241.829 266.867 L 247.088 259.234 243.937 243.867 C 242.204 235.415, 240.439 228.127, 240.015 227.672 C 239.309 226.914, 216.227 231.429, 113.030 252.510 C 92.972 256.608, 76.284 259.632, 75.947 259.230 C 75.609 258.829, 71.813 240.950, 67.511 219.500 C 63.209 198.050, 59.421 179.993, 59.094 179.374 C 58.767 178.755, 54.736 183.813, 50.135 190.614 M 192.005 182.250 C 192 186.651, 192.183 187, 194.500 187 C 197.573 187, 197.571 186.528, 194.474 181.500 L 192.010 177.500 192.005 182.250 M 182.500 192.878 C 180.850 193.231, 179.549 193.866, 179.608 194.289 C 179.668 194.712, 181.237 202.470, 183.096 211.529 C 186.387 227.567, 186.542 228, 188.988 227.985 C 194.410 227.952, 194.469 227.452, 191.034 210.873 C 187.283 192.771, 187.074 191.964, 186.183 192.118 C 185.807 192.183, 184.150 192.525, 182.500 192.878 M 210.378 194.437 C 206.113 196.293, 204 199.656, 204 204.588 C 204 209.889, 206.833 213.570, 212.136 215.159 C 215.642 216.209, 216.619 216.122, 219.660 214.484 C 223.818 212.244, 226 208.447, 226 203.450 C 226 200.632, 225.225 199.025, 222.600 196.400 C 218.854 192.654, 215.655 192.140, 210.378 194.437 M 150.174 199.520 C 147.245 200.234, 144.698 200.972, 144.515 201.159 C 144.332 201.347, 145.829 209.282, 147.841 218.792 C 151.207 234.699, 151.660 236.048, 153.500 235.626 C 154.600 235.374, 158.060 234.653, 161.188 234.026 C 172.017 231.852, 178 225.522, 178 216.238 C 178 208.603, 175.091 203.723, 168.618 200.497 C 163.052 197.723, 158.526 197.483, 150.174 199.520 M 155.044 205.952 C 153.777 206.753, 153.819 208.080, 155.372 216.177 C 156.353 221.295, 157.598 226.016, 158.139 226.668 C 159.617 228.448, 164.477 226.410, 167.598 222.701 C 171.253 218.357, 170.588 211.808, 166.083 207.782 C 162.878 204.919, 157.964 204.104, 155.044 205.952 M 300.022 214.385 L 275.544 219.500 268.189 230 C 264.145 235.775, 260.375 241.346, 259.812 242.381 C 258.592 244.625, 257.363 244.787, 286 238.926 C 296.725 236.731, 306.661 234.706, 308.080 234.425 C 309.985 234.049, 312.677 231.041, 318.374 222.924 C 326.865 210.826, 327.892 208.933, 325.857 209.135 C 325.111 209.209, 313.485 211.572, 300.022 214.385 M 75.068 216.229 C 74.949 217.505, 82.020 250.353, 82.520 250.854 C 83.410 251.744, 83.010 249.137, 79.978 234.294 C 77.350 221.426, 75.289 213.844, 75.068 216.229 M 123.544 217.250 C 123.328 217.938, 122.958 220.863, 122.722 223.750 C 122.320 228.679, 122.434 229, 124.582 229 C 125.840 229, 128.016 228.564, 129.416 228.032 C 132.305 226.934, 132.134 225.785, 128.187 219.750 C 125.647 215.866, 124.221 215.098, 123.544 217.250 M 92.254 220.750 C 93.114 221.713, 94.022 223.625, 94.273 225 C 94.679 227.233, 94.742 227.174, 94.864 224.450 C 94.997 221.462, 93.543 219, 91.645 219 C 91.120 219, 91.394 219.787, 92.254 220.750 M 131 233.933 C 131 234.446, 132.012 235.174, 133.250 235.551 C 134.488 235.928, 136.287 236.928, 137.250 237.773 C 139.420 239.678, 139.531 238.204, 137.443 235.223 C 135.916 233.041, 131 232.057, 131 233.933 M 95 241.500 C 100.572 247.142, 102.769 248.752, 99.436 244.750 C 95.003 239.427, 91.537 236, 90.588 236 C 90.027 236, 92.013 238.475, 95 241.500" stroke="none" fill="#eee640" fill-rule="evenodd"/></svg>