<svg width="1920" height="1217" viewBox="0 0 1920 1217" fill="none" xmlns="http://www.w3.org/2000/svg">
<g opacity="0.3" clip-path="url(#clip0_89_51)">
<path d="M147.9 154.966C150.885 156.518 154.115 156.518 157.1 154.966M141 146.819L142.5 148.033C143.022 148.456 143.629 148.759 144.279 148.92C144.929 149.081 145.606 149.096 146.262 148.965C146.918 148.834 147.539 148.56 148.079 148.162C148.62 147.764 149.069 147.251 149.394 146.659L152.5 141L155.606 146.659C155.931 147.25 156.38 147.763 156.921 148.162C157.462 148.56 158.082 148.834 158.738 148.965C159.395 149.095 160.071 149.08 160.721 148.919C161.371 148.758 161.978 148.455 162.5 148.032L164 146.819L161.983 157.027C161.895 157.472 161.707 157.891 161.435 158.252C161.163 158.613 160.812 158.907 160.411 159.11C157.955 160.353 155.246 161 152.5 161C149.754 161 147.045 160.353 144.589 159.11C144.188 158.907 143.837 158.613 143.565 158.252C143.293 157.891 143.105 157.472 143.017 157.027L141 146.819Z" stroke="#FF444F" strokeWidth="3" stroke-linecap="square" stroke-linejoin="round"/>
<path d="M471.559 182.137L464.401 183.179L462.466 173.363C462.458 173.323 462.441 173.286 462.417 173.255C462.393 173.224 462.362 173.199 462.326 173.183C462.29 173.167 462.251 173.16 462.212 173.162C462.172 173.164 462.134 173.175 462.099 173.195L453.423 178.177L449.511 172.089C449.396 171.911 449.122 171.955 449.057 172.166L443.364 190.414C443.289 190.663 443.4 190.933 443.63 191.038L461.122 199.009C461.35 199.113 461.627 199.024 461.764 198.799L471.802 182.532C471.915 182.343 471.771 182.109 471.559 182.137ZM454.336 190.719C452.57 189.914 451.818 187.758 452.659 185.913C453.5 184.067 455.621 183.22 457.387 184.025C459.153 184.83 459.905 186.985 459.064 188.831C458.222 190.677 456.102 191.524 454.336 190.719ZM456.516 185.936C455.759 185.591 454.852 185.954 454.491 186.747C454.13 187.538 454.451 188.463 455.207 188.808C455.964 189.152 456.871 188.79 457.232 187.997C457.593 187.206 457.272 186.281 456.516 185.936Z" fill="#FF444F"/>
<path opacity="0.211119" d="M1930.57 261.4C1933.2 259.308 1934.52 256.36 1934.32 253.001M1920.31 264.375L1922.03 263.501C1922.63 263.197 1923.16 262.766 1923.57 262.238C1923.98 261.711 1924.27 261.099 1924.42 260.447C1924.57 259.794 1924.57 259.116 1924.43 258.459C1924.28 257.803 1924 257.184 1923.59 256.646L1919.69 251.501L1926.13 250.975C1926.8 250.919 1927.45 250.719 1928.04 250.388C1928.62 250.056 1929.12 249.602 1929.51 249.056C1929.9 248.51 1930.16 247.886 1930.28 247.227C1930.4 246.568 1930.37 245.89 1930.19 245.241L1929.7 243.377L1938.19 249.384C1938.56 249.646 1938.87 249.988 1939.09 250.384C1939.31 250.78 1939.43 251.22 1939.45 251.669C1939.59 254.419 1939.07 257.156 1937.95 259.663C1936.83 262.17 1935.14 264.378 1933 266.114C1932.65 266.397 1932.24 266.597 1931.8 266.699C1931.36 266.8 1930.9 266.8 1930.45 266.699L1920.31 264.375Z" stroke="#FF444F" strokeWidth="3" stroke-linecap="square" stroke-linejoin="round"/>
<path opacity="0.704212" d="M810.726 642.061C808.456 644.545 807.623 647.665 808.351 650.95M820.378 637.498L818.818 638.633C818.275 639.029 817.826 639.538 817.502 640.124C817.179 640.71 816.989 641.36 816.946 642.028C816.903 642.696 817.008 643.366 817.253 643.991C817.499 644.617 817.879 645.182 818.367 645.649L823.032 650.11L816.763 651.651C816.108 651.812 815.496 652.113 814.972 652.533C814.447 652.953 814.023 653.481 813.727 654.082C813.431 654.682 813.272 655.34 813.26 656.009C813.247 656.678 813.383 657.343 813.657 657.957L814.441 659.719L805.101 655.135C804.693 654.935 804.336 654.646 804.058 654.29C803.78 653.933 803.587 653.519 803.494 653.079C802.927 650.385 803.001 647.601 803.709 644.948C804.418 642.295 805.743 639.846 807.577 637.793C807.877 637.458 808.251 637.195 808.67 637.025C809.089 636.855 809.543 636.782 809.996 636.812L820.378 637.498Z" stroke="#FF444F" strokeWidth="3" stroke-linecap="square" stroke-linejoin="round"/>
<path opacity="0.046342" d="M949.468 382.388C946.22 383.266 943.843 385.451 942.695 388.614M960.062 383.716L958.136 383.837C957.465 383.879 956.813 384.068 956.226 384.389C955.639 384.71 955.13 385.157 954.735 385.697C954.341 386.238 954.07 386.859 953.941 387.519C953.813 388.178 953.829 388.859 953.991 389.515L955.534 395.783L949.417 393.719C948.778 393.503 948.1 393.429 947.432 393.502C946.765 393.575 946.123 393.793 945.551 394.141C944.979 394.489 944.492 394.959 944.122 395.517C943.753 396.075 943.511 396.709 943.412 397.374L943.129 399.282L937.706 390.402C937.47 390.014 937.324 389.579 937.28 389.129C937.236 388.679 937.296 388.226 937.454 387.804C938.421 385.227 939.977 382.918 941.998 381.059C944.02 379.2 946.452 377.844 949.101 377.097C949.535 376.975 949.991 376.954 950.436 377.035C950.881 377.116 951.302 377.298 951.669 377.567L960.062 383.716Z" stroke="#FF444F" strokeWidth="3" stroke-linecap="square" stroke-linejoin="round"/>
<path opacity="0.867439" d="M166.335 650.955L172.917 653.956L169.226 663.256C169.212 663.294 169.206 663.334 169.209 663.373C169.213 663.412 169.225 663.45 169.247 663.483C169.268 663.516 169.297 663.543 169.331 663.563C169.365 663.582 169.404 663.594 169.444 663.596L179.435 664.107L179.427 671.343C179.427 671.555 179.681 671.667 179.85 671.525L194.519 659.268C194.717 659.1 194.77 658.813 194.633 658.6L184.246 642.425C184.111 642.214 183.83 642.139 183.593 642.254L166.344 650.492C166.147 650.589 166.141 650.864 166.335 650.955ZM185.461 653.069C186.509 654.703 185.974 656.922 184.267 658.018C182.56 659.114 180.319 658.677 179.271 657.044C178.222 655.411 178.757 653.192 180.464 652.096C182.171 651 184.412 651.436 185.461 653.069ZM181.038 655.909C181.487 656.609 182.446 656.796 183.18 656.324C183.911 655.855 184.142 654.904 183.693 654.204C183.244 653.505 182.286 653.318 181.552 653.789C180.821 654.259 180.589 655.21 181.038 655.909Z" fill="#FF444F"/>
<path opacity="0.522829" d="M1416.29 19.1305C1417.58 22.2393 1420.05 24.3174 1423.34 25.0511M1416.26 8.45422L1416.62 10.3484C1416.75 11.0083 1417.02 11.6306 1417.41 12.172C1417.81 12.7134 1418.31 13.1608 1418.9 13.483C1419.49 13.8053 1420.14 13.9946 1420.81 14.0378C1421.48 14.0809 1422.15 13.9769 1422.78 13.733L1428.8 11.4007L1427.54 17.7309C1427.41 18.393 1427.42 19.0743 1427.58 19.7272C1427.73 20.3802 1428.03 20.9891 1428.45 21.5116C1428.87 22.0341 1429.4 22.4575 1430 22.7523C1430.6 23.0472 1431.26 23.2064 1431.93 23.2188L1433.86 23.2556L1425.75 29.7702C1425.39 30.0545 1424.98 30.2548 1424.54 30.3558C1424.1 30.4568 1423.64 30.4559 1423.2 30.3532C1420.52 29.7239 1418.03 28.4762 1415.93 26.709C1413.83 24.9417 1412.17 22.7034 1411.09 20.1713C1410.92 19.7574 1410.84 19.3074 1410.86 18.8558C1410.88 18.4041 1411.01 17.9626 1411.23 17.565L1416.26 8.45422Z" stroke="#FF444F" strokeWidth="3" stroke-linecap="square" stroke-linejoin="round"/>
<path opacity="0.63486" d="M253.644 640.208L256.692 646.768L247.841 651.433C247.805 651.452 247.775 651.479 247.752 651.511C247.729 651.543 247.714 651.58 247.709 651.619C247.704 651.657 247.708 651.697 247.721 651.734C247.735 651.771 247.757 651.805 247.786 651.833L255.043 658.718L250.331 664.211C250.193 664.371 250.314 664.622 250.535 664.624L269.648 664.852C269.909 664.853 270.135 664.67 270.17 664.419L272.798 645.376C272.833 645.128 272.668 644.888 272.413 644.821L253.952 639.863C253.739 639.808 253.556 640.013 253.644 640.208ZM266.798 654.252C266.533 656.175 264.683 657.513 262.674 657.235C260.664 656.958 259.246 655.169 259.511 653.246C259.777 651.324 261.626 649.986 263.636 650.263C265.645 650.541 267.064 652.33 266.798 654.252ZM261.592 653.533C261.478 654.357 262.085 655.122 262.949 655.241C263.81 655.36 264.604 654.788 264.718 653.965C264.831 653.141 264.225 652.376 263.361 652.257C262.5 652.138 261.706 652.71 261.592 653.533Z" fill="#FF444F"/>
<path opacity="0.470124" d="M757.808 347.007L751.943 351.24L745.688 343.431C745.663 343.4 745.631 343.375 745.595 343.358C745.559 343.342 745.52 343.334 745.481 343.337C745.442 343.339 745.404 343.35 745.37 343.37C745.336 343.39 745.307 343.419 745.285 343.452L739.897 351.881L733.612 348.293C733.428 348.188 733.206 348.354 733.245 348.571L736.636 367.383C736.684 367.638 736.907 367.826 737.16 367.813L756.356 366.792C756.606 366.779 756.811 366.572 756.828 366.309L758.206 347.244C758.219 347.024 757.983 346.883 757.808 347.007ZM746.506 362.579C744.567 362.682 742.904 361.119 742.796 359.093C742.689 357.068 744.177 355.337 746.115 355.234C748.053 355.13 749.717 356.694 749.824 358.72C749.932 360.745 748.444 362.476 746.506 362.579ZM746.227 357.331C745.396 357.375 744.76 358.115 744.806 358.986C744.852 359.854 745.564 360.526 746.394 360.482C747.224 360.438 747.861 359.697 747.815 358.826C747.768 357.959 747.057 357.287 746.227 357.331Z" fill="#FF444F"/>
<path opacity="0.807707" d="M1344.7 84.5762L1346.15 77.4898L1356.04 79.0057C1356.08 79.0118 1356.12 79.0086 1356.16 78.9964C1356.2 78.9842 1356.23 78.9632 1356.26 78.9353C1356.29 78.9073 1356.31 78.873 1356.32 78.8352C1356.33 78.7974 1356.33 78.7571 1356.33 78.7175L1354.59 68.8656L1361.64 67.2541C1361.85 67.2067 1361.9 66.934 1361.73 66.8011L1346.5 55.2469C1346.29 55.091 1346 55.1036 1345.82 55.2846L1332.38 69.0274C1332.21 69.2061 1332.19 69.4973 1332.36 69.7024L1344.25 84.6705C1344.39 84.8414 1344.66 84.7857 1344.7 84.5762ZM1342.48 65.4622C1343.84 64.0747 1346.12 64.0999 1347.57 65.5183C1349.02 66.9367 1349.1 69.2184 1347.74 70.6059C1346.39 71.9933 1344.1 71.9682 1342.65 70.5498C1341.2 69.1314 1341.13 66.8496 1342.48 65.4622ZM1346.24 69.1372C1346.82 68.5429 1346.79 67.567 1346.17 66.9571C1345.54 66.3496 1344.57 66.3365 1343.98 66.9308C1343.4 67.5251 1343.44 68.5011 1344.06 69.1109C1344.68 69.7185 1345.66 69.7315 1346.24 69.1372Z" fill="#FF444F"/>
<path opacity="0.676734" d="M770.492 423.693C771.48 420.477 770.897 417.301 768.832 414.644M763.724 431.95L764.647 430.256C764.969 429.666 765.157 429.014 765.198 428.346C765.239 427.678 765.132 427.009 764.885 426.387C764.638 425.765 764.256 425.205 763.767 424.744C763.278 424.284 762.692 423.936 762.051 423.723L755.925 421.689L760.93 417.613C761.454 417.186 761.877 416.652 762.172 416.048C762.466 415.444 762.623 414.785 762.633 414.116C762.644 413.447 762.506 412.784 762.23 412.174C761.955 411.564 761.548 411.021 761.037 410.584L759.574 409.327L769.978 409.47C770.432 409.476 770.878 409.585 771.282 409.788C771.686 409.99 772.038 410.282 772.31 410.64C773.976 412.832 775.101 415.379 775.597 418.08C776.092 420.781 775.944 423.562 775.165 426.202C775.038 426.634 774.812 427.031 774.506 427.364C774.2 427.697 773.822 427.957 773.4 428.124L763.724 431.95Z" stroke="#FF444F" strokeWidth="3" stroke-linecap="square" stroke-linejoin="round"/>
<path opacity="0.378159" d="M1869.79 156.83L1865.14 162.373L1857.16 156.337C1857.13 156.312 1857.09 156.296 1857.05 156.289C1857.01 156.282 1856.97 156.284 1856.94 156.296C1856.9 156.307 1856.87 156.328 1856.84 156.356C1856.81 156.384 1856.79 156.418 1856.78 156.456L1853.62 165.949L1846.65 164.011C1846.44 163.955 1846.27 164.17 1846.36 164.371L1854.26 181.777C1854.37 182.013 1854.63 182.14 1854.87 182.065L1873.23 176.368C1873.47 176.294 1873.62 176.043 1873.57 175.784L1870.23 156.963C1870.19 156.747 1869.93 156.668 1869.79 156.83ZM1862.65 174.7C1860.8 175.275 1858.8 174.167 1858.2 172.23C1857.6 170.292 1858.62 168.249 1860.47 167.674C1862.32 167.099 1864.32 168.207 1864.92 170.144C1865.52 172.081 1864.5 174.124 1862.65 174.7ZM1861.09 169.68C1860.3 169.926 1859.86 170.8 1860.12 171.633C1860.38 172.463 1861.23 172.94 1862.03 172.694C1862.82 172.447 1863.26 171.573 1863 170.74C1862.74 169.911 1861.89 169.434 1861.09 169.68Z" fill="#FF444F"/>
<path opacity="0.532537" d="M1215.92 908.438C1217.53 911.393 1220.21 913.197 1223.55 913.579M1214.75 897.826L1215.31 899.671C1215.51 900.313 1215.85 900.904 1216.29 901.4C1216.74 901.897 1217.3 902.288 1217.91 902.546C1218.53 902.804 1219.2 902.923 1219.87 902.895C1220.54 902.867 1221.2 902.692 1221.8 902.383L1227.54 899.426L1226.95 905.854C1226.89 906.527 1226.98 907.203 1227.2 907.835C1227.43 908.468 1227.79 909.042 1228.26 909.517C1228.73 909.992 1229.3 910.357 1229.93 910.587C1230.56 910.816 1231.23 910.904 1231.9 910.846L1233.82 910.678L1226.45 918.016C1226.12 918.336 1225.74 918.579 1225.31 918.726C1224.88 918.873 1224.43 918.921 1223.98 918.865C1221.25 918.523 1218.64 917.547 1216.36 916.012C1214.08 914.478 1212.2 912.428 1210.86 910.024C1210.64 909.632 1210.51 909.193 1210.49 908.741C1210.46 908.289 1210.54 907.837 1210.72 907.418L1214.75 897.826Z" stroke="#FF444F" strokeWidth="3" stroke-linecap="square" stroke-linejoin="round"/>
<path opacity="0.195394" d="M1251.98 335.453C1250.17 332.62 1247.37 331.009 1244.01 330.865M1253.9 345.956L1253.21 344.156C1252.97 343.529 1252.59 342.964 1252.11 342.5C1251.62 342.037 1251.05 341.686 1250.41 341.472C1249.78 341.258 1249.1 341.186 1248.44 341.262C1247.77 341.337 1247.12 341.558 1246.55 341.909L1241.03 345.265L1241.16 338.811C1241.18 338.136 1241.04 337.468 1240.77 336.853C1240.5 336.238 1240.1 335.691 1239.6 335.25C1239.09 334.809 1238.5 334.486 1237.86 334.301C1237.21 334.117 1236.53 334.076 1235.87 334.182L1233.97 334.486L1240.81 326.644C1241.1 326.302 1241.48 326.032 1241.89 325.855C1242.31 325.678 1242.76 325.599 1243.21 325.623C1245.96 325.77 1248.63 326.56 1251.01 327.929C1253.39 329.299 1255.41 331.211 1256.92 333.513C1257.17 333.889 1257.32 334.318 1257.38 334.767C1257.44 335.216 1257.39 335.673 1257.24 336.103L1253.9 345.956Z" stroke="#FF444F" strokeWidth="3" stroke-linecap="square" stroke-linejoin="round"/>
<path opacity="0.543625" d="M1552.38 567.263L1556.77 561.52L1565.01 567.198C1565.05 567.221 1565.08 567.235 1565.12 567.241C1565.16 567.246 1565.2 567.242 1565.24 567.229C1565.28 567.215 1565.31 567.193 1565.34 567.164C1565.36 567.135 1565.38 567.1 1565.39 567.061L1568.13 557.438L1575.18 559.065C1575.38 559.113 1575.55 558.89 1575.45 558.693L1566.79 541.654C1566.67 541.423 1566.4 541.308 1566.16 541.393L1548.07 547.897C1547.84 547.982 1547.7 548.239 1547.76 548.496L1551.93 567.15C1551.98 567.365 1552.24 567.432 1552.38 567.263ZM1558.72 549.096C1560.54 548.439 1562.59 549.457 1563.27 551.366C1563.96 553.275 1563.03 555.361 1561.21 556.018C1559.38 556.675 1557.34 555.656 1556.65 553.747C1555.96 551.839 1556.89 549.752 1558.72 549.096ZM1560.5 554.041C1561.28 553.76 1561.67 552.868 1561.38 552.047C1561.09 551.229 1560.21 550.791 1559.43 551.072C1558.65 551.353 1558.25 552.246 1558.54 553.066C1558.84 553.884 1559.71 554.323 1560.5 554.041Z" fill="#FF444F"/>
<path opacity="0.195161" d="M1895.91 97.5772C1895.57 94.2297 1893.8 91.528 1890.87 89.88M1892.87 107.813L1893.06 105.893C1893.13 105.224 1893.05 104.551 1892.83 103.919C1892.61 103.287 1892.25 102.712 1891.78 102.235C1891.31 101.757 1890.74 101.388 1890.11 101.154C1889.48 100.92 1888.81 100.825 1888.14 100.878L1881.7 101.378L1884.73 95.6802C1885.05 95.0842 1885.23 94.4279 1885.27 93.7572C1885.31 93.0864 1885.2 92.4174 1884.95 91.7966C1884.7 91.1759 1884.31 90.6183 1883.82 90.1629C1883.33 89.7076 1882.75 89.3652 1882.11 89.1599L1880.27 88.5695L1889.92 84.6663C1890.34 84.496 1890.79 84.4232 1891.24 84.4534C1891.69 84.4836 1892.13 84.616 1892.52 84.8405C1894.91 86.2147 1896.93 88.1263 1898.43 90.4239C1899.94 92.7215 1900.88 95.342 1901.19 98.0778C1901.24 98.525 1901.18 98.9787 1901.03 99.4044C1900.88 99.8301 1900.63 100.217 1900.3 100.534L1892.87 107.813Z" stroke="#FF444F" strokeWidth="3" stroke-linecap="square" stroke-linejoin="round"/>
<path opacity="0.586288" d="M1379.22 495.53C1381.41 498.079 1384.41 499.279 1387.76 498.947M1375.84 485.403L1376.78 487.087C1377.11 487.674 1377.56 488.18 1378.1 488.571C1378.65 488.962 1379.27 489.228 1379.93 489.35C1380.59 489.472 1381.26 489.448 1381.91 489.279C1382.56 489.11 1383.17 488.8 1383.69 488.371L1388.68 484.271L1389.46 490.679C1389.54 491.349 1389.77 491.992 1390.12 492.562C1390.48 493.133 1390.95 493.618 1391.51 493.983C1392.07 494.348 1392.71 494.585 1393.37 494.677C1394.03 494.769 1394.71 494.713 1395.35 494.514L1397.19 493.945L1391.53 502.673C1391.28 503.054 1390.95 503.374 1390.57 503.608C1390.18 503.842 1389.74 503.984 1389.3 504.024C1386.55 504.266 1383.8 503.861 1381.25 502.841C1378.7 501.821 1376.43 500.214 1374.61 498.148C1374.31 497.81 1374.09 497.407 1373.97 496.971C1373.86 496.534 1373.84 496.076 1373.92 495.629L1375.84 485.403Z" stroke="#FF444F" strokeWidth="3" stroke-linecap="square" stroke-linejoin="round"/>
<path opacity="0.788217" d="M791.16 170.731L795.905 165.271L803.776 171.448C803.808 171.473 803.845 171.49 803.883 171.497C803.922 171.505 803.962 171.504 803.999 171.493C804.037 171.482 804.071 171.462 804.1 171.434C804.128 171.407 804.15 171.373 804.163 171.335L807.488 161.9L814.425 163.96C814.628 164.02 814.807 163.808 814.719 163.606L807.126 146.063C807.021 145.825 806.761 145.693 806.518 145.764L788.061 151.136C787.821 151.205 787.668 151.454 787.711 151.714L790.719 170.591C790.756 170.808 791.018 170.891 791.16 170.731ZM798.613 152.991C800.476 152.448 802.453 153.591 803.02 155.539C803.586 157.487 802.532 159.512 800.668 160.054C798.805 160.596 796.829 159.453 796.262 157.506C795.695 155.558 796.749 153.533 798.613 152.991ZM800.082 158.037C800.88 157.805 801.331 156.939 801.087 156.101C800.844 155.267 799.998 154.775 799.2 155.007C798.402 155.24 797.951 156.106 798.194 156.943C798.437 157.778 799.283 158.269 800.082 158.037Z" fill="#FF444F"/>
<path opacity="0.611988" d="M1804.4 254.859L1797.21 254.07L1797.8 244.082C1797.8 244.041 1797.79 244.002 1797.78 243.965C1797.76 243.929 1797.74 243.897 1797.71 243.873C1797.68 243.848 1797.64 243.831 1797.6 243.823C1797.56 243.816 1797.52 243.817 1797.48 243.828L1787.84 246.471L1785.58 239.596C1785.51 239.395 1785.23 239.369 1785.12 239.557L1775.03 255.791C1774.89 256.013 1774.93 256.301 1775.13 256.461L1790.06 268.569C1790.25 268.727 1790.54 268.711 1790.73 268.527L1804.53 255.301C1804.69 255.147 1804.61 254.884 1804.4 254.859ZM1785.57 258.841C1784.06 257.618 1783.88 255.343 1785.15 253.767C1786.43 252.192 1788.7 251.905 1790.2 253.127C1791.71 254.35 1791.9 256.625 1790.62 258.2C1789.34 259.776 1787.08 260.063 1785.57 258.841ZM1788.88 254.758C1788.24 254.235 1787.27 254.358 1786.72 255.035C1786.17 255.71 1786.25 256.686 1786.89 257.209C1787.54 257.733 1788.51 257.61 1789.06 256.933C1789.6 256.258 1789.53 255.282 1788.88 254.758Z" fill="#FF444F"/>
<path opacity="0.615526" d="M1149.37 350.646C1146.14 351.581 1143.8 353.809 1142.71 356.991M1159.99 351.786L1158.06 351.941C1157.39 351.996 1156.74 352.195 1156.16 352.527C1155.58 352.859 1155.08 353.314 1154.7 353.861C1154.31 354.409 1154.05 355.035 1153.93 355.697C1153.82 356.358 1153.85 357.039 1154.02 357.692L1155.67 363.932L1149.52 361.976C1148.88 361.772 1148.2 361.71 1147.53 361.795C1146.87 361.88 1146.23 362.109 1145.66 362.467C1145.1 362.825 1144.62 363.303 1144.26 363.868C1143.9 364.432 1143.67 365.07 1143.58 365.737L1143.33 367.649L1137.75 358.867C1137.51 358.484 1137.36 358.051 1137.3 357.602C1137.25 357.152 1137.3 356.698 1137.45 356.274C1138.38 353.68 1139.89 351.344 1141.88 349.45C1143.87 347.556 1146.27 346.156 1148.91 345.362C1149.34 345.232 1149.8 345.203 1150.24 345.277C1150.69 345.35 1151.11 345.525 1151.49 345.786L1159.99 351.786Z" stroke="#FF444F" strokeWidth="3" stroke-linecap="square" stroke-linejoin="round"/>
<path opacity="0.345995" d="M403.759 581.734C404.194 578.398 403.088 575.364 400.608 573.09M398.467 591.007L399.094 589.182C399.313 588.547 399.389 587.872 399.318 587.207C399.246 586.541 399.029 585.9 398.681 585.328C398.334 584.756 397.864 584.268 397.304 583.896C396.745 583.524 396.109 583.278 395.442 583.176L389.061 582.196L393.314 577.339C393.759 576.831 394.087 576.234 394.276 575.589C394.465 574.945 394.51 574.268 394.408 573.607C394.306 572.945 394.059 572.315 393.685 571.76C393.312 571.204 392.819 570.737 392.243 570.391L390.59 569.398L400.871 567.797C401.319 567.727 401.777 567.76 402.21 567.892C402.642 568.024 403.038 568.253 403.366 568.561C405.376 570.443 406.911 572.766 407.852 575.346C408.792 577.926 409.112 580.692 408.785 583.425C408.732 583.872 408.576 584.302 408.33 584.681C408.084 585.061 407.755 585.381 407.366 585.616L398.467 591.007Z" stroke="#FF444F" strokeWidth="3" stroke-linecap="square" stroke-linejoin="round"/>
<path opacity="0.42732" d="M731.377 605.263L735.775 599.52L744.013 605.198C744.046 605.221 744.084 605.235 744.123 605.241C744.162 605.246 744.202 605.242 744.238 605.229C744.275 605.215 744.308 605.193 744.335 605.164C744.362 605.135 744.381 605.1 744.392 605.061L747.127 595.438L754.178 597.065C754.384 597.113 754.55 596.89 754.449 596.693L745.786 579.654C745.666 579.423 745.399 579.308 745.16 579.393L727.071 585.897C726.835 585.982 726.699 586.239 726.758 586.496L730.927 605.15C730.978 605.365 731.245 605.432 731.377 605.263ZM737.717 587.096C739.544 586.439 741.587 587.457 742.273 589.366C742.959 591.275 742.032 593.361 740.206 594.018C738.38 594.675 736.336 593.656 735.65 591.747C734.964 589.839 735.891 587.752 737.717 587.096ZM739.495 592.041C740.278 591.76 740.674 590.868 740.379 590.047C740.085 589.229 739.21 588.791 738.428 589.072C737.646 589.353 737.249 590.246 737.544 591.066C737.838 591.884 738.713 592.323 739.495 592.041Z" fill="#FF444F"/>
<path opacity="0.5041" d="M676.775 836.77C673.653 835.517 670.439 835.83 667.619 837.665M684.434 844.208L682.824 843.146C682.263 842.776 681.629 842.534 680.967 842.437C680.304 842.34 679.629 842.39 678.989 842.584C678.348 842.778 677.757 843.111 677.258 843.56C676.758 844.009 676.362 844.563 676.096 845.184L673.554 851.118L669.913 845.788C669.532 845.231 669.036 844.764 668.458 844.42C667.881 844.076 667.237 843.864 666.571 843.797C665.905 843.731 665.234 843.812 664.603 844.036C663.972 844.259 663.397 844.62 662.918 845.091L661.543 846.444L662.559 836.089C662.603 835.637 662.749 835.202 662.985 834.816C663.221 834.43 663.541 834.104 663.921 833.863C666.244 832.387 668.877 831.48 671.61 831.213C674.343 830.946 677.102 831.326 679.667 832.325C680.087 832.488 680.464 832.746 680.77 833.079C681.076 833.412 681.304 833.811 681.434 834.245L684.434 844.208Z" stroke="#FF444F" strokeWidth="3" stroke-linecap="square" stroke-linejoin="round"/>
<path opacity="0.419812" d="M1144.03 525.256C1143.02 522.046 1140.74 519.758 1137.54 518.737M1143.12 535.894L1142.93 533.975C1142.86 533.306 1142.64 532.663 1142.3 532.089C1141.95 531.514 1141.49 531.024 1140.93 530.651C1140.38 530.278 1139.74 530.032 1139.08 529.93C1138.42 529.828 1137.74 529.872 1137.09 530.059L1130.89 531.85L1132.7 525.657C1132.89 525.009 1132.94 524.329 1132.84 523.665C1132.74 523 1132.5 522.367 1132.13 521.81C1131.76 521.253 1131.27 520.784 1130.7 520.437C1130.12 520.091 1129.48 519.874 1128.81 519.802L1126.9 519.595L1135.55 513.823C1135.93 513.571 1136.36 513.408 1136.81 513.346C1137.26 513.285 1137.71 513.326 1138.14 513.467C1140.75 514.331 1143.12 515.793 1145.06 517.739C1147 519.686 1148.45 522.061 1149.3 524.679C1149.44 525.107 1149.48 525.562 1149.42 526.01C1149.35 526.458 1149.19 526.886 1148.93 527.263L1143.12 535.894Z" stroke="#FF444F" strokeWidth="3" stroke-linecap="square" stroke-linejoin="round"/>
<path opacity="0.366714" d="M94.1506 435.122C94.7036 431.803 93.7057 428.732 91.3076 426.372M88.5345 444.202L89.2256 442.4C89.4664 441.773 89.5664 441.102 89.5187 440.434C89.471 439.766 89.2767 439.118 88.9494 438.534C88.6221 437.95 88.1697 437.445 87.6237 437.054C87.0776 436.662 86.4512 436.394 85.7879 436.268L79.4462 435.063L83.8681 430.36C84.3305 429.868 84.6796 429.283 84.8912 428.645C85.1028 428.008 85.1718 427.333 85.0933 426.669C85.0148 426.004 84.7908 425.365 84.4368 424.797C84.0829 424.229 83.6075 423.745 83.0438 423.379L81.427 422.327L91.7579 421.092C92.2088 421.038 92.6654 421.086 93.0929 421.234C93.5205 421.381 93.9077 421.624 94.2251 421.943C96.1663 423.895 97.6187 426.271 98.4673 428.882C99.316 431.494 99.5375 434.27 99.1143 436.99C99.0451 437.435 98.8744 437.859 98.6152 438.229C98.356 438.6 98.0152 438.908 97.6188 439.129L88.5345 444.202Z" stroke="#FF444F" strokeWidth="3" stroke-linecap="square" stroke-linejoin="round"/>
<path opacity="0.272126" d="M582.458 929.846C585.804 929.494 588.497 927.714 590.132 924.773M572.209 926.855L574.129 927.04C574.798 927.105 575.472 927.023 576.103 926.799C576.733 926.575 577.307 926.214 577.782 925.743C578.257 925.272 578.624 924.701 578.855 924.071C579.087 923.44 579.178 922.765 579.123 922.092L578.594 915.659L584.305 918.666C584.903 918.981 585.56 919.161 586.231 919.195C586.901 919.229 587.57 919.116 588.19 918.863C588.809 918.61 589.365 918.224 589.818 917.731C590.272 917.239 590.611 916.651 590.814 916.01L591.396 914.172L595.342 923.799C595.514 924.219 595.589 924.672 595.561 925.124C595.533 925.575 595.402 926.013 595.179 926.404C593.816 928.795 591.913 930.829 589.622 932.343C587.331 933.857 584.715 934.811 581.98 935.129C581.533 935.18 581.079 935.129 580.653 934.978C580.227 934.827 579.839 934.58 579.52 934.257L572.209 926.855Z" stroke="#FF444F" strokeWidth="3" stroke-linecap="square" stroke-linejoin="round"/>
<path opacity="0.111866" d="M1072.04 454.087L1077.35 458.999L1070.93 466.675C1070.91 466.706 1070.89 466.742 1070.88 466.781C1070.87 466.819 1070.87 466.859 1070.88 466.897C1070.89 466.935 1070.91 466.97 1070.94 466.999C1070.96 467.028 1071 467.051 1071.03 467.066L1080.36 470.681L1078.09 477.551C1078.02 477.752 1078.23 477.937 1078.43 477.855L1096.2 470.81C1096.44 470.712 1096.58 470.457 1096.52 470.212L1091.72 451.597C1091.66 451.354 1091.42 451.195 1091.15 451.23L1072.19 453.651C1071.98 453.681 1071.88 453.94 1072.04 454.087ZM1089.54 462.086C1090.03 463.965 1088.82 465.905 1086.86 466.412C1084.89 466.918 1082.9 465.801 1082.42 463.922C1081.93 462.043 1083.14 460.103 1085.1 459.596C1087.07 459.09 1089.06 460.207 1089.54 462.086ZM1084.45 463.398C1084.66 464.203 1085.51 464.68 1086.35 464.463C1087.2 464.246 1087.71 463.415 1087.51 462.61C1087.3 461.805 1086.45 461.328 1085.6 461.545C1084.76 461.762 1084.24 462.593 1084.45 463.398Z" fill="#FF444F"/>
<path opacity="0.965737" d="M1361.25 766.488C1358.17 765.124 1354.95 765.324 1352.07 767.057M1368.64 774.192L1367.07 773.073C1366.52 772.683 1365.9 772.419 1365.24 772.299C1364.58 772.178 1363.9 772.204 1363.25 772.376C1362.61 772.547 1362.01 772.859 1361.49 773.29C1360.98 773.721 1360.56 774.261 1360.27 774.872L1357.52 780.712L1354.07 775.257C1353.71 774.686 1353.23 774.202 1352.67 773.838C1352.1 773.474 1351.47 773.239 1350.8 773.149C1350.14 773.059 1349.46 773.117 1348.83 773.318C1348.19 773.519 1347.6 773.858 1347.11 774.313L1345.68 775.616L1347.06 765.304C1347.13 764.853 1347.29 764.423 1347.54 764.046C1347.79 763.669 1348.12 763.355 1348.51 763.127C1350.88 761.734 1353.54 760.921 1356.28 760.75C1359.02 760.58 1361.77 761.059 1364.3 762.147C1364.71 762.325 1365.08 762.596 1365.37 762.94C1365.67 763.283 1365.88 763.69 1365.99 764.129L1368.64 774.192Z" stroke="#FF444F" strokeWidth="3" stroke-linecap="square" stroke-linejoin="round"/>
<path opacity="0.075384" d="M345.279 495.173C345.14 498.534 346.51 501.459 349.182 503.504M349.73 485.468L349.267 487.341C349.106 487.994 349.089 488.672 349.219 489.329C349.349 489.986 349.622 490.605 350.019 491.144C350.416 491.683 350.927 492.128 351.517 492.449C352.107 492.77 352.762 492.958 353.436 493.002L359.878 493.414L356.071 498.627C355.673 499.173 355.399 499.796 355.268 500.455C355.137 501.114 355.152 501.792 355.312 502.442C355.472 503.092 355.773 503.698 356.194 504.218C356.616 504.738 357.147 505.16 357.752 505.453L359.486 506.297L349.387 508.8C348.946 508.909 348.487 508.917 348.045 508.824C347.602 508.73 347.188 508.537 346.834 508.26C344.666 506.563 342.931 504.385 341.766 501.898C340.602 499.411 340.039 496.684 340.123 493.932C340.136 493.482 340.253 493.041 340.465 492.641C340.676 492.241 340.976 491.893 341.342 491.625L349.73 485.468Z" stroke="#FF444F" strokeWidth="3" stroke-linecap="square" stroke-linejoin="round"/>
<path opacity="0.851166" d="M1722.27 248.304L1715.49 245.776L1718.52 236.238C1718.53 236.199 1718.53 236.159 1718.53 236.12C1718.52 236.081 1718.5 236.044 1718.48 236.013C1718.46 235.982 1718.43 235.957 1718.39 235.939C1718.35 235.922 1718.32 235.914 1718.28 235.915L1708.27 236.111L1707.77 228.892C1707.75 228.681 1707.49 228.588 1707.33 228.741L1693.57 242.005C1693.38 242.187 1693.35 242.476 1693.5 242.679L1705.01 258.08C1705.16 258.28 1705.44 258.335 1705.67 258.204L1722.29 248.766C1722.48 248.655 1722.47 248.381 1722.27 248.304ZM1703.04 247.547C1701.88 245.992 1702.26 243.741 1703.88 242.527C1705.51 241.313 1707.78 241.59 1708.94 243.145C1710.1 244.699 1709.72 246.951 1708.1 248.165C1706.47 249.379 1704.2 249.102 1703.04 247.547ZM1707.25 244.402C1706.76 243.736 1705.79 243.617 1705.09 244.139C1704.39 244.659 1704.23 245.624 1704.73 246.29C1705.22 246.956 1706.19 247.075 1706.89 246.553C1707.59 246.033 1707.75 245.068 1707.25 244.402Z" fill="#FF444F"/>
<path opacity="0.264733" d="M1202.37 -15.5632L1209.29 -13.4594L1206.86 -3.75262C1206.85 -3.71356 1206.85 -3.67317 1206.86 -3.63465C1206.87 -3.59614 1206.89 -3.56055 1206.91 -3.53072C1206.94 -3.50089 1206.97 -3.47762 1207.01 -3.46278C1207.04 -3.44793 1207.08 -3.44191 1207.12 -3.44519L1217.1 -4.26054L1218.05 2.91319C1218.07 3.123 1218.34 3.20002 1218.49 3.03699L1231.41 -11.0533C1231.58 -11.2464 1231.59 -11.5374 1231.43 -11.7304L1218.99 -26.389C1218.83 -26.5797 1218.54 -26.6173 1218.32 -26.4721L1202.32 -16.0233C1202.13 -15.9007 1202.17 -15.6274 1202.37 -15.5632ZM1221.61 -15.9985C1222.86 -14.5186 1222.63 -12.2479 1221.08 -10.9356C1219.53 -9.62329 1217.25 -9.75958 1216 -11.2395C1214.74 -12.7194 1214.98 -14.9901 1216.53 -16.3024C1218.07 -17.6147 1220.35 -17.4785 1221.61 -15.9985ZM1217.6 -12.5983C1218.14 -11.9644 1219.11 -11.9061 1219.78 -12.4703C1220.44 -13.0325 1220.54 -14.0058 1220.01 -14.6397C1219.47 -15.2736 1218.49 -15.3319 1217.83 -14.7677C1217.17 -14.2056 1217.06 -13.2322 1217.6 -12.5983Z" fill="#FF444F"/>
<path opacity="0.0937948" d="M1419.77 404.471C1422.62 406.255 1425.84 406.512 1428.94 405.203M1413.54 395.801L1414.94 397.13C1415.42 397.593 1416 397.943 1416.64 398.155C1417.27 398.368 1417.95 398.437 1418.61 398.359C1419.28 398.28 1419.92 398.056 1420.49 397.702C1421.06 397.348 1421.55 396.873 1421.92 396.309L1425.46 390.915L1428.11 396.803C1428.39 397.418 1428.79 397.965 1429.3 398.405C1429.81 398.845 1430.4 399.168 1431.05 399.351C1431.69 399.533 1432.37 399.571 1433.03 399.462C1433.69 399.353 1434.32 399.1 1434.87 398.72L1436.46 397.631L1433.64 407.645C1433.52 408.082 1433.3 408.485 1433 408.823C1432.7 409.161 1432.33 409.426 1431.91 409.597C1429.36 410.64 1426.61 411.07 1423.87 410.851C1421.14 410.633 1418.49 409.772 1416.14 408.338C1415.75 408.103 1415.43 407.783 1415.18 407.402C1414.94 407.02 1414.79 406.587 1414.74 406.136L1413.54 395.801Z" stroke="#FF444F" strokeWidth="3" stroke-linecap="square" stroke-linejoin="round"/>
<path opacity="0.520245" d="M1123.24 6.23615C1126.31 4.85382 1128.31 2.31896 1128.94 -0.985671M1112.57 6.60521L1114.45 6.18011C1115.11 6.032 1115.72 5.74269 1116.25 5.33235C1116.78 4.922 1117.21 4.40049 1117.51 3.80419C1117.82 3.20789 1117.99 2.55113 1118.01 1.87972C1118.03 1.20831 1117.91 0.538404 1117.64 -0.0832976L1115.12 -6.02727L1121.49 -4.95983C1122.16 -4.84837 1122.84 -4.88279 1123.48 -5.0607C1124.13 -5.23862 1124.73 -5.55574 1125.24 -5.98997C1125.75 -6.42419 1126.16 -6.96507 1126.43 -7.57489C1126.71 -8.18471 1126.85 -8.84879 1126.84 -9.52085L1126.82 -11.4493L1133.58 -3.54241C1133.87 -3.19731 1134.09 -2.79049 1134.2 -2.35296C1134.32 -1.91544 1134.33 -1.45875 1134.24 -1.01771C1133.7 1.68044 1132.53 4.20744 1130.82 6.36314C1129.12 8.51883 1126.94 10.244 1124.44 11.402C1124.03 11.5912 1123.58 11.6845 1123.13 11.6746C1122.68 11.6648 1122.23 11.5522 1121.83 11.3454L1112.57 6.60521Z" stroke="#FF444F" strokeWidth="3" stroke-linecap="square" stroke-linejoin="round"/>
<path opacity="0.308697" d="M1104.63 259.396L1110.39 263.768L1104.75 272.032C1104.73 272.065 1104.71 272.103 1104.71 272.142C1104.7 272.181 1104.71 272.221 1104.72 272.257C1104.73 272.294 1104.75 272.327 1104.78 272.354C1104.81 272.38 1104.85 272.4 1104.89 272.411L1114.52 275.102L1112.93 282.16C1112.88 282.367 1113.1 282.531 1113.3 282.43L1130.3 273.691C1130.53 273.571 1130.65 273.303 1130.56 273.065L1123.97 255.004C1123.89 254.769 1123.63 254.634 1123.37 254.694L1104.74 258.946C1104.52 258.998 1104.46 259.264 1104.63 259.396ZM1122.82 265.656C1123.49 267.479 1122.48 269.527 1120.57 270.222C1118.67 270.917 1116.58 269.999 1115.91 268.175C1115.25 266.352 1116.26 264.304 1118.16 263.609C1120.07 262.915 1122.16 263.832 1122.82 265.656ZM1117.89 267.456C1118.17 268.237 1119.06 268.63 1119.88 268.331C1120.7 268.033 1121.13 267.156 1120.85 266.375C1120.57 265.594 1119.67 265.202 1118.85 265.5C1118.04 265.798 1117.6 266.675 1117.89 267.456Z" fill="#FF444F"/>
<path opacity="0.335434" d="M1564.69 234.192L1562.12 227.432L1571.27 223.405C1571.31 223.389 1571.34 223.364 1571.37 223.334C1571.39 223.303 1571.41 223.268 1571.42 223.229C1571.43 223.191 1571.43 223.151 1571.42 223.113C1571.4 223.075 1571.39 223.04 1571.36 223.01L1564.61 215.629L1569.69 210.484C1569.84 210.333 1569.74 210.075 1569.52 210.057L1550.47 208.478C1550.21 208.458 1549.97 208.625 1549.92 208.873L1545.95 227.682C1545.9 227.927 1546.05 228.178 1546.3 228.263L1564.36 234.515C1564.57 234.584 1564.77 234.393 1564.69 234.192ZM1552.56 219.253C1552.97 217.354 1554.9 216.15 1556.89 216.569C1558.87 216.987 1560.16 218.872 1559.76 220.771C1559.36 222.67 1557.42 223.874 1555.44 223.455C1553.45 223.036 1552.16 221.152 1552.56 219.253ZM1557.71 220.338C1557.88 219.524 1557.33 218.718 1556.47 218.538C1555.62 218.359 1554.79 218.873 1554.62 219.686C1554.45 220.5 1555 221.306 1555.85 221.486C1556.7 221.665 1557.54 221.151 1557.71 220.338Z" fill="#FF444F"/>
<path opacity="0.562636" d="M1550.27 142.972C1549.19 146.161 1549.69 149.351 1551.68 152.062M1557.25 134.898L1556.28 136.567C1555.94 137.148 1555.74 137.795 1555.68 138.461C1555.62 139.128 1555.71 139.799 1555.94 140.428C1556.17 141.056 1556.54 141.626 1557.02 142.099C1557.49 142.572 1558.07 142.937 1558.7 143.166L1564.77 145.362L1559.66 149.304C1559.13 149.717 1558.69 150.239 1558.38 150.835C1558.07 151.431 1557.89 152.086 1557.87 152.755C1557.84 153.423 1557.96 154.089 1558.22 154.707C1558.48 155.324 1558.87 155.877 1559.37 156.328L1560.8 157.622L1550.4 157.204C1549.95 157.186 1549.51 157.065 1549.11 156.852C1548.71 156.638 1548.36 156.337 1548.1 155.972C1546.49 153.737 1545.44 151.161 1545.01 148.447C1544.59 145.734 1544.81 142.958 1545.66 140.34C1545.8 139.912 1546.04 139.52 1546.35 139.195C1546.66 138.871 1547.05 138.621 1547.48 138.465L1557.25 134.898Z" stroke="#FF444F" strokeWidth="3" stroke-linecap="square" stroke-linejoin="round"/>
<path opacity="0.453763" d="M1163.76 351.635C1162.86 354.877 1163.52 358.036 1165.66 360.637M1170.31 343.202L1169.43 344.92C1169.12 345.518 1168.95 346.175 1168.93 346.844C1168.9 347.513 1169.03 348.178 1169.29 348.793C1169.56 349.408 1169.95 349.959 1170.45 350.406C1170.96 350.853 1171.55 351.186 1172.2 351.381L1178.37 353.252L1173.48 357.46C1172.97 357.9 1172.56 358.445 1172.28 359.056C1172 359.668 1171.86 360.331 1171.87 361.001C1171.88 361.67 1172.03 362.329 1172.32 362.931C1172.62 363.534 1173.04 364.065 1173.56 364.489L1175.06 365.706L1164.65 365.84C1164.2 365.846 1163.75 365.749 1163.34 365.557C1162.93 365.365 1162.57 365.083 1162.29 364.732C1160.57 362.585 1159.37 360.069 1158.81 357.382C1158.24 354.695 1158.31 351.911 1159.02 349.251C1159.14 348.816 1159.35 348.413 1159.65 348.072C1159.95 347.731 1160.32 347.461 1160.74 347.283L1170.31 343.202Z" stroke="#FF444F" strokeWidth="3" stroke-linecap="square" stroke-linejoin="round"/>
<path opacity="0.0969626" d="M1199.63 286.58C1202.7 287.971 1205.92 287.8 1208.82 286.092M1192.31 278.811L1193.87 279.944C1194.41 280.338 1195.04 280.608 1195.69 280.734C1196.35 280.861 1197.03 280.84 1197.68 280.675C1198.33 280.509 1198.93 280.203 1199.45 279.776C1199.97 279.35 1200.39 278.813 1200.68 278.205L1203.48 272.39L1206.89 277.875C1207.24 278.449 1207.72 278.937 1208.28 279.306C1208.84 279.675 1209.47 279.916 1210.14 280.012C1210.8 280.108 1211.47 280.056 1212.11 279.861C1212.75 279.665 1213.34 279.331 1213.84 278.881L1215.28 277.59L1213.8 287.89C1213.74 288.34 1213.57 288.768 1213.32 289.143C1213.07 289.518 1212.73 289.83 1212.34 290.054C1209.96 291.426 1207.29 292.216 1204.55 292.361C1201.8 292.507 1199.06 292.005 1196.55 290.894C1196.13 290.712 1195.77 290.438 1195.48 290.092C1195.19 289.746 1194.98 289.337 1194.87 288.897L1192.31 278.811Z" stroke="#FF444F" strokeWidth="3" stroke-linecap="square" stroke-linejoin="round"/>
<path opacity="0.93573" d="M384.676 768.224C387.899 767.26 390.218 765.012 391.281 761.821M374.051 767.178L375.972 767.006C376.642 766.946 377.288 766.74 377.867 766.403C378.446 766.067 378.942 765.607 379.322 765.056C379.703 764.505 379.957 763.877 380.068 763.214C380.179 762.552 380.144 761.871 379.965 761.22L378.257 754.995L384.426 756.896C385.071 757.094 385.75 757.15 386.416 757.06C387.081 756.969 387.717 756.734 388.28 756.371C388.842 756.008 389.317 755.526 389.671 754.958C390.025 754.39 390.251 753.75 390.331 753.083L390.564 751.168L396.221 759.901C396.468 760.282 396.625 760.713 396.681 761.162C396.736 761.611 396.689 762.065 396.542 762.491C395.644 765.093 394.15 767.443 392.178 769.354C390.207 771.266 387.812 772.687 385.183 773.504C384.753 773.637 384.297 773.671 383.851 773.601C383.404 773.531 382.977 773.361 382.604 773.102L374.051 767.178Z" stroke="#FF444F" strokeWidth="3" stroke-linecap="square" stroke-linejoin="round"/>
<path opacity="0.0512679" d="M274.374 147.962L267.152 147.556L267.213 137.55C267.213 137.51 267.204 137.47 267.187 137.435C267.169 137.4 267.143 137.369 267.112 137.346C267.08 137.323 267.043 137.308 267.004 137.303C266.965 137.297 266.925 137.3 266.887 137.313L257.392 140.465L254.772 133.72C254.695 133.523 254.417 133.511 254.312 133.705L245.096 150.451C244.972 150.68 245.027 150.967 245.232 151.115L260.784 162.414C260.986 162.561 261.276 162.529 261.455 162.336L274.534 148.396C274.683 148.234 274.588 147.976 274.374 147.962ZM255.787 152.937C254.216 151.797 253.909 149.534 255.102 147.893C256.294 146.252 258.54 145.845 260.11 146.986C261.681 148.127 261.988 150.389 260.796 152.03C259.603 153.671 257.357 154.078 255.787 152.937ZM258.876 148.685C258.203 148.197 257.242 148.371 256.73 149.076C256.219 149.779 256.349 150.749 257.021 151.238C257.694 151.727 258.655 151.553 259.167 150.847C259.678 150.144 259.548 149.174 258.876 148.685Z" fill="#FF444F"/>
<path opacity="0.275868" d="M1556.05 356.535L1561.65 351.946L1568.37 359.353C1568.4 359.383 1568.43 359.406 1568.47 359.42C1568.51 359.434 1568.55 359.44 1568.58 359.435C1568.62 359.431 1568.66 359.417 1568.69 359.394C1568.73 359.372 1568.75 359.342 1568.77 359.307L1573.63 350.561L1580.12 353.753C1580.31 353.847 1580.53 353.667 1580.47 353.453L1575.92 334.887C1575.86 334.635 1575.62 334.461 1575.37 334.491L1556.28 336.698C1556.03 336.726 1555.84 336.946 1555.84 337.209L1555.64 356.323C1555.64 356.543 1555.89 356.67 1556.05 356.535ZM1566.37 340.293C1568.3 340.07 1570.06 341.527 1570.29 343.542C1570.52 345.557 1569.14 347.377 1567.21 347.6C1565.29 347.823 1563.53 346.365 1563.3 344.35C1563.06 342.335 1564.44 340.515 1566.37 340.293ZM1566.97 345.514C1567.8 345.418 1568.39 344.64 1568.29 343.773C1568.19 342.91 1567.44 342.284 1566.61 342.379C1565.79 342.474 1565.2 343.253 1565.3 344.119C1565.4 344.982 1566.15 345.609 1566.97 345.514Z" fill="#FF444F"/>
<path opacity="0.96063" d="M1010.42 767.753C1012.81 765.393 1013.81 762.322 1013.26 759.003M1000.53 771.798L1002.15 770.747C1002.72 770.381 1003.19 769.897 1003.55 769.328C1003.9 768.76 1004.12 768.121 1004.2 767.457C1004.28 766.792 1004.21 766.118 1004 765.48C1003.79 764.842 1003.44 764.257 1002.98 763.765L998.553 759.063L1004.9 757.857C1005.56 757.731 1006.18 757.463 1006.73 757.071C1007.28 756.68 1007.73 756.175 1008.06 755.591C1008.38 755.007 1008.58 754.359 1008.62 753.691C1008.67 753.023 1008.57 752.352 1008.33 751.725L1007.64 749.924L1016.73 754.996C1017.12 755.217 1017.46 755.525 1017.72 755.896C1017.98 756.267 1018.15 756.69 1018.22 757.135C1018.64 759.855 1018.42 762.631 1017.57 765.243C1016.73 767.854 1015.27 770.23 1013.33 772.182C1013.02 772.501 1012.63 772.744 1012.2 772.891C1011.77 773.039 1011.32 773.088 1010.87 773.034L1000.53 771.798Z" stroke="#FF444F" strokeWidth="3" stroke-linecap="square" stroke-linejoin="round"/>
<path opacity="0.753075" d="M72.9775 303.189L79.9799 301.374L82.9718 310.922C82.9838 310.961 83.0044 310.995 83.0319 311.024C83.0594 311.052 83.093 311.073 83.1302 311.085C83.1673 311.098 83.207 311.101 83.2459 311.094C83.2849 311.088 83.3221 311.072 83.3546 311.048L91.4364 305.153L95.9885 310.778C96.1218 310.942 96.3895 310.869 96.4314 310.652L100.104 291.893C100.152 291.637 100.013 291.382 99.7721 291.302L81.5159 285.282C81.2785 285.203 81.0123 285.322 80.9008 285.56L72.6932 302.824C72.6009 303.024 72.7695 303.241 72.9775 303.189ZM89.1641 292.784C91.0072 293.392 91.9894 295.453 91.3541 297.38C90.7188 299.306 88.7033 300.378 86.8601 299.77C85.017 299.163 84.0348 297.102 84.6701 295.175C85.3055 293.249 87.321 292.177 89.1641 292.784ZM87.518 297.776C88.3075 298.036 89.1695 297.578 89.4427 296.749C89.7148 295.924 89.2957 295.039 88.5063 294.779C87.7168 294.519 86.8547 294.977 86.5815 295.806C86.3094 296.631 86.7285 297.515 87.518 297.776Z" fill="#FF444F"/>
<path opacity="0.14208" d="M5.79115 797.629C2.71166 798.984 0.688749 801.501 0.0278582 804.8M16.464 797.354L14.5784 797.763C13.9215 797.905 13.3053 798.189 12.7727 798.595C12.2402 799 11.8041 799.518 11.495 800.112C11.1858 800.705 11.0109 801.36 10.9826 802.032C10.9543 802.703 11.0731 803.374 11.3309 803.998L13.7959 809.964L7.43926 808.84C6.77441 808.723 6.0936 808.751 5.44429 808.923C4.79497 809.095 4.19278 809.407 3.6797 809.837C3.16661 810.267 2.75498 810.804 2.4735 811.411C2.19201 812.019 2.04746 812.681 2.0499 813.354L2.05578 815.282L-4.63675 807.316C-4.9288 806.968 -5.13817 806.559 -5.24893 806.121C-5.35968 805.682 -5.36888 805.226 -5.27583 804.785C-4.70604 802.092 -3.51376 799.576 -1.79343 797.435C-0.0731071 795.294 2.12801 793.589 4.63558 792.453C5.04549 792.267 5.49356 792.178 5.94564 792.192C6.39772 792.206 6.84189 792.322 7.24427 792.533L16.464 797.354Z" stroke="#FF444F" strokeWidth="3" stroke-linecap="square" stroke-linejoin="round"/>
<path opacity="0.164794" d="M32.2237 221.802C28.8702 221.53 25.8938 222.782 23.7437 225.37M41.7432 226.636L39.8902 226.099C39.2446 225.912 38.5676 225.868 37.9062 225.972C37.2448 226.075 36.6151 226.323 36.0608 226.699C35.5066 227.074 35.0412 227.567 34.6971 228.144C34.353 228.721 34.1385 229.368 34.0685 230.039L33.4 236.46L28.3424 232.449C27.8134 232.029 27.2009 231.73 26.5479 231.573C25.8948 231.416 25.2168 231.404 24.5611 231.538C23.9054 231.672 23.2878 231.949 22.7514 232.349C22.2149 232.75 21.7726 233.264 21.4551 233.856L20.5432 235.556L18.444 225.365C18.3524 224.92 18.3626 224.461 18.4737 224.023C18.5848 223.584 18.7939 223.178 19.0851 222.835C20.867 220.737 23.1125 219.09 25.6438 218.025C28.1751 216.96 30.9225 216.506 33.6686 216.699C34.1174 216.731 34.554 216.866 34.9452 217.093C35.3363 217.32 35.6716 217.634 35.9255 218.01L41.7432 226.636Z" stroke="#FF444F" strokeWidth="3" stroke-linecap="square" stroke-linejoin="round"/>
<path opacity="0.501589" d="M1887.46 488.698L1891.75 482.878L1900.09 488.409C1900.12 488.432 1900.16 488.446 1900.2 488.45C1900.24 488.455 1900.28 488.45 1900.32 488.436C1900.35 488.422 1900.38 488.4 1900.41 488.37C1900.44 488.341 1900.46 488.305 1900.47 488.266L1903.03 478.596L1910.11 480.098C1910.32 480.142 1910.48 479.916 1910.37 479.722L1901.41 462.838C1901.29 462.609 1901.02 462.499 1900.78 462.588L1882.81 469.412C1882.57 469.5 1882.44 469.76 1882.51 470.015L1887 488.594C1887.06 488.807 1887.33 488.87 1887.46 488.698ZM1893.47 470.421C1895.29 469.733 1897.35 470.715 1898.07 472.611C1898.79 474.507 1897.9 476.61 1896.08 477.299C1894.27 477.988 1892.21 477.006 1891.49 475.109C1890.77 473.213 1891.66 471.11 1893.47 470.421ZM1895.34 475.335C1896.12 475.04 1896.5 474.141 1896.19 473.325C1895.88 472.513 1895 472.09 1894.22 472.385C1893.44 472.68 1893.06 473.579 1893.37 474.395C1893.68 475.207 1894.56 475.63 1895.34 475.335Z" fill="#FF444F"/>
<path opacity="0.742593" d="M232.978 551.451C229.618 551.625 226.833 553.26 225.044 556.11M243.053 554.982L241.145 554.695C240.481 554.594 239.804 554.641 239.162 554.831C238.52 555.022 237.929 555.351 237.429 555.796C236.929 556.241 236.533 556.792 236.269 557.409C236.004 558.027 235.877 558.696 235.896 559.371L236.084 565.824L230.54 562.517C229.96 562.171 229.313 561.956 228.645 561.887C227.977 561.817 227.303 561.895 226.671 562.115C226.039 562.334 225.463 562.69 224.984 563.158C224.506 563.626 224.135 564.195 223.899 564.824L223.22 566.629L219.791 556.806C219.641 556.377 219.59 555.921 219.642 555.471C219.695 555.022 219.848 554.592 220.091 554.213C221.58 551.898 223.588 549.968 225.956 548.577C228.324 547.187 230.987 546.373 233.734 546.201C234.183 546.173 234.634 546.249 235.052 546.422C235.47 546.596 235.843 546.862 236.145 547.202L243.053 554.982Z" stroke="#FF444F" strokeWidth="3" stroke-linecap="square" stroke-linejoin="round"/>
<path opacity="0.831633" d="M1610.62 677.047L1611.84 684.177L1602.07 686.357C1602.03 686.366 1602 686.383 1601.97 686.408C1601.94 686.433 1601.91 686.465 1601.9 686.501C1601.88 686.537 1601.88 686.576 1601.88 686.615C1601.88 686.655 1601.89 686.693 1601.92 686.728L1607.11 695.276L1601.12 699.34C1600.95 699.459 1601 699.732 1601.21 699.791L1619.6 705.026C1619.85 705.096 1620.11 704.979 1620.21 704.746L1627.75 687.06C1627.84 686.83 1627.75 686.554 1627.52 686.423L1611.01 676.795C1610.82 676.686 1610.58 676.836 1610.62 677.047ZM1619.63 694.051C1618.87 695.836 1616.73 696.642 1614.86 695.847C1613 695.052 1612.1 692.954 1612.86 691.168C1613.62 689.382 1615.76 688.577 1617.62 689.372C1619.49 690.167 1620.39 692.265 1619.63 694.051ZM1614.79 691.991C1614.47 692.756 1614.85 693.653 1615.65 693.995C1616.45 694.336 1617.37 693.992 1617.69 693.228C1618.02 692.463 1617.64 691.565 1616.83 691.223C1616.03 690.883 1615.12 691.226 1614.79 691.991Z" fill="#FF444F"/>
<path opacity="0.225213" d="M1442.64 141.446L1446.48 147.579L1438.27 153.302C1438.24 153.325 1438.21 153.355 1438.19 153.39C1438.18 153.425 1438.17 153.463 1438.17 153.502C1438.17 153.542 1438.17 153.58 1438.19 153.615C1438.21 153.651 1438.24 153.681 1438.27 153.705L1446.32 159.641L1442.32 165.674C1442.21 165.85 1442.36 166.084 1442.58 166.058L1461.57 163.922C1461.83 163.891 1462.03 163.681 1462.04 163.428L1462.29 144.206C1462.29 143.956 1462.1 143.738 1461.84 143.703L1442.91 141.065C1442.69 141.037 1442.53 141.263 1442.64 141.446ZM1457.43 153.756C1457.41 155.697 1455.74 157.253 1453.71 157.226C1451.68 157.199 1450.05 155.599 1450.08 153.659C1450.1 151.718 1451.77 150.162 1453.8 150.189C1455.83 150.216 1457.46 151.816 1457.43 153.756ZM1452.18 153.687C1452.17 154.518 1452.86 155.202 1453.74 155.214C1454.61 155.225 1455.32 154.56 1455.33 153.728C1455.34 152.897 1454.65 152.213 1453.78 152.201C1452.91 152.19 1452.19 152.855 1452.18 153.687Z" fill="#FF444F"/>
<path opacity="0.99425" d="M929.095 454.539C926.789 452.089 923.74 451.024 920.41 451.503M932.92 464.507L931.905 462.866C931.551 462.294 931.078 461.808 930.518 461.442C929.957 461.076 929.324 460.838 928.661 460.745C927.998 460.651 927.322 460.706 926.68 460.903C926.038 461.101 925.445 461.437 924.943 461.889L920.144 466.205L919.079 459.839C918.967 459.173 918.713 458.541 918.334 457.986C917.955 457.432 917.46 456.968 916.883 456.628C916.307 456.288 915.663 456.08 914.996 456.018C914.33 455.955 913.657 456.041 913.024 456.267L911.208 456.917L916.48 447.947C916.711 447.556 917.026 447.222 917.402 446.971C917.778 446.72 918.206 446.559 918.652 446.5C921.381 446.137 924.151 446.419 926.743 447.326C929.336 448.232 931.679 449.736 933.587 451.72C933.899 452.044 934.133 452.437 934.271 452.868C934.409 453.298 934.448 453.756 934.384 454.205L932.92 464.507Z" stroke="#FF444F" strokeWidth="3" stroke-linecap="square" stroke-linejoin="round"/>
<path opacity="0.918407" d="M1470.33 797.86C1467.76 795.691 1464.61 794.983 1461.36 795.841M1475.28 807.322L1474.08 805.809C1473.66 805.282 1473.14 804.853 1472.54 804.554C1471.94 804.254 1471.28 804.091 1470.61 804.074C1469.95 804.058 1469.28 804.189 1468.66 804.459C1468.05 804.729 1467.5 805.131 1467.05 805.637L1462.78 810.477L1460.99 804.274C1460.8 803.626 1460.48 803.027 1460.04 802.519C1459.6 802.012 1459.05 801.609 1458.44 801.337C1457.83 801.066 1457.17 800.932 1456.5 800.947C1455.83 800.962 1455.17 801.124 1454.57 801.422L1452.84 802.276L1457.05 792.76C1457.23 792.345 1457.5 791.977 1457.85 791.684C1458.19 791.392 1458.6 791.182 1459.04 791.072C1461.71 790.399 1464.49 790.361 1467.17 790.964C1469.85 791.567 1472.35 792.792 1474.47 794.544C1474.82 794.83 1475.1 795.193 1475.28 795.605C1475.47 796.017 1475.56 796.468 1475.55 796.921L1475.28 807.322Z" stroke="#FF444F" strokeWidth="3" stroke-linecap="square" stroke-linejoin="round"/>
<path opacity="0.727179" d="M1180.37 182.355C1181.88 185.365 1184.49 187.263 1187.82 187.762M1179.58 171.708L1180.08 173.572C1180.25 174.221 1180.57 174.822 1181 175.335C1181.43 175.847 1181.97 176.257 1182.58 176.537C1183.18 176.817 1183.85 176.96 1184.52 176.955C1185.19 176.951 1185.85 176.8 1186.46 176.512L1192.3 173.759L1191.49 180.163C1191.41 180.833 1191.47 181.512 1191.67 182.152C1191.87 182.792 1192.22 183.378 1192.67 183.87C1193.12 184.361 1193.68 184.746 1194.3 184.998C1194.92 185.249 1195.59 185.362 1196.26 185.326L1198.19 185.227L1190.56 192.299C1190.22 192.608 1189.82 192.837 1189.39 192.969C1188.96 193.101 1188.5 193.132 1188.06 193.06C1185.34 192.622 1182.77 191.554 1180.55 189.94C1178.33 188.326 1176.52 186.21 1175.26 183.761C1175.05 183.361 1174.94 182.917 1174.93 182.465C1174.93 182.013 1175.02 181.564 1175.21 181.151L1179.58 171.708Z" stroke="#FF444F" strokeWidth="3" stroke-linecap="square" stroke-linejoin="round"/>
</g>
<defs>
<clipPath id="clip0_89_51">
<rect width="1920" height="1217" fill="white"/>
</clipPath>
</defs>
</svg>
